# xmcd
#
# Track frame offsets:
#	150
#	29472
#	53750
#	75465
#	96120
#	113870
#	140982
#	161857
#	181057
#	198110
#
# Disc length: 2922 seconds
#
# Revision: 2
# Processed by: cddbd v1.5.1PL0 Copyright (c) Steve Scherf et al.
# Submitted via: dBpowerAMP V4.0
#
DISCID=810b680a
DTITLE=Bobby Womack - Save The Children
DYEAR=1989
DGENRE=Blues
TTITLE0=Save The Children
TTITLE1=Priorities
TTITLE2=Too Close For Comfort
TTITLE3=Baby I'm Back
TTITLE4=She's My Girl
TTITLE5=Free Love
TTITLE6=How Can It Be
TTITLE7=Tough Job
TTITLE8=Now We're Together
TTITLE9=Better Love (Everybody's Looking For A Better Love)
EXTD=5099746622824
EXTT0=
EXTT1=
EXTT2=
EXTT3=
EXTT4=
EXTT5=
EXTT6=
EXTT7=
EXTT8=
EXTT9=
PLAYORDER=
